G75*
%MOIN*%
%OFA0B0*%
%FSLAX25Y25*%
%IPPOS*%
%LPD*%
%AMOC8*
5,1,8,0,0,1.08239X$1,22.5*
%
%ADD10C,0.00000*%
%ADD11C,0.00600*%
%ADD12C,0.00400*%
%ADD13C,0.00300*%
%ADD14C,0.01100*%
%ADD15C,0.01000*%
%ADD16C,0.00700*%
%ADD17C,0.00800*%
%ADD18C,0.00500*%
%ADD19C,0.00394*%
%ADD20C,0.00787*%
D10*
X0020985Y0033691D02*
X0194213Y0033691D01*
X0194498Y0033694D01*
X0194784Y0033705D01*
X0195069Y0033722D01*
X0195353Y0033746D01*
X0195637Y0033777D01*
X0195920Y0033815D01*
X0196201Y0033860D01*
X0196482Y0033911D01*
X0196762Y0033969D01*
X0197040Y0034034D01*
X0197316Y0034106D01*
X0197590Y0034184D01*
X0197863Y0034269D01*
X0198133Y0034361D01*
X0198401Y0034459D01*
X0198667Y0034563D01*
X0198930Y0034674D01*
X0199190Y0034791D01*
X0199448Y0034914D01*
X0199702Y0035044D01*
X0199953Y0035180D01*
X0200201Y0035321D01*
X0200445Y0035469D01*
X0200686Y0035622D01*
X0200922Y0035782D01*
X0201155Y0035947D01*
X0201384Y0036117D01*
X0201609Y0036293D01*
X0201829Y0036475D01*
X0202045Y0036661D01*
X0202256Y0036853D01*
X0202463Y0037050D01*
X0202665Y0037252D01*
X0202862Y0037459D01*
X0203054Y0037670D01*
X0203240Y0037886D01*
X0203422Y0038106D01*
X0203598Y0038331D01*
X0203768Y0038560D01*
X0203933Y0038793D01*
X0204093Y0039029D01*
X0204246Y0039270D01*
X0204394Y0039514D01*
X0204535Y0039762D01*
X0204671Y0040013D01*
X0204801Y0040267D01*
X0204924Y0040525D01*
X0205041Y0040785D01*
X0205152Y0041048D01*
X0205256Y0041314D01*
X0205354Y0041582D01*
X0205446Y0041852D01*
X0205531Y0042125D01*
X0205609Y0042399D01*
X0205681Y0042675D01*
X0205746Y0042953D01*
X0205804Y0043233D01*
X0205855Y0043514D01*
X0205900Y0043795D01*
X0205938Y0044078D01*
X0205969Y0044362D01*
X0205993Y0044646D01*
X0206010Y0044931D01*
X0206021Y0045217D01*
X0206024Y0045502D01*
X0206024Y0218730D01*
X0206021Y0219015D01*
X0206010Y0219301D01*
X0205993Y0219586D01*
X0205969Y0219870D01*
X0205938Y0220154D01*
X0205900Y0220437D01*
X0205855Y0220718D01*
X0205804Y0220999D01*
X0205746Y0221279D01*
X0205681Y0221557D01*
X0205609Y0221833D01*
X0205531Y0222107D01*
X0205446Y0222380D01*
X0205354Y0222650D01*
X0205256Y0222918D01*
X0205152Y0223184D01*
X0205041Y0223447D01*
X0204924Y0223707D01*
X0204801Y0223965D01*
X0204671Y0224219D01*
X0204535Y0224470D01*
X0204394Y0224718D01*
X0204246Y0224962D01*
X0204093Y0225203D01*
X0203933Y0225439D01*
X0203768Y0225672D01*
X0203598Y0225901D01*
X0203422Y0226126D01*
X0203240Y0226346D01*
X0203054Y0226562D01*
X0202862Y0226773D01*
X0202665Y0226980D01*
X0202463Y0227182D01*
X0202256Y0227379D01*
X0202045Y0227571D01*
X0201829Y0227757D01*
X0201609Y0227939D01*
X0201384Y0228115D01*
X0201155Y0228285D01*
X0200922Y0228450D01*
X0200686Y0228610D01*
X0200445Y0228763D01*
X0200201Y0228911D01*
X0199953Y0229052D01*
X0199702Y0229188D01*
X0199448Y0229318D01*
X0199190Y0229441D01*
X0198930Y0229558D01*
X0198667Y0229669D01*
X0198401Y0229773D01*
X0198133Y0229871D01*
X0197863Y0229963D01*
X0197590Y0230048D01*
X0197316Y0230126D01*
X0197040Y0230198D01*
X0196762Y0230263D01*
X0196482Y0230321D01*
X0196201Y0230372D01*
X0195920Y0230417D01*
X0195637Y0230455D01*
X0195353Y0230486D01*
X0195069Y0230510D01*
X0194784Y0230527D01*
X0194498Y0230538D01*
X0194213Y0230541D01*
X0020985Y0230541D01*
X0020700Y0230538D01*
X0020414Y0230527D01*
X0020129Y0230510D01*
X0019845Y0230486D01*
X0019561Y0230455D01*
X0019278Y0230417D01*
X0018997Y0230372D01*
X0018716Y0230321D01*
X0018436Y0230263D01*
X0018158Y0230198D01*
X0017882Y0230126D01*
X0017608Y0230048D01*
X0017335Y0229963D01*
X0017065Y0229871D01*
X0016797Y0229773D01*
X0016531Y0229669D01*
X0016268Y0229558D01*
X0016008Y0229441D01*
X0015750Y0229318D01*
X0015496Y0229188D01*
X0015245Y0229052D01*
X0014997Y0228911D01*
X0014753Y0228763D01*
X0014512Y0228610D01*
X0014276Y0228450D01*
X0014043Y0228285D01*
X0013814Y0228115D01*
X0013589Y0227939D01*
X0013369Y0227757D01*
X0013153Y0227571D01*
X0012942Y0227379D01*
X0012735Y0227182D01*
X0012533Y0226980D01*
X0012336Y0226773D01*
X0012144Y0226562D01*
X0011958Y0226346D01*
X0011776Y0226126D01*
X0011600Y0225901D01*
X0011430Y0225672D01*
X0011265Y0225439D01*
X0011105Y0225203D01*
X0010952Y0224962D01*
X0010804Y0224718D01*
X0010663Y0224470D01*
X0010527Y0224219D01*
X0010397Y0223965D01*
X0010274Y0223707D01*
X0010157Y0223447D01*
X0010046Y0223184D01*
X0009942Y0222918D01*
X0009844Y0222650D01*
X0009752Y0222380D01*
X0009667Y0222107D01*
X0009589Y0221833D01*
X0009517Y0221557D01*
X0009452Y0221279D01*
X0009394Y0220999D01*
X0009343Y0220718D01*
X0009298Y0220437D01*
X0009260Y0220154D01*
X0009229Y0219870D01*
X0009205Y0219586D01*
X0009188Y0219301D01*
X0009177Y0219015D01*
X0009174Y0218730D01*
X0009174Y0045502D01*
X0009177Y0045217D01*
X0009188Y0044931D01*
X0009205Y0044646D01*
X0009229Y0044362D01*
X0009260Y0044078D01*
X0009298Y0043795D01*
X0009343Y0043514D01*
X0009394Y0043233D01*
X0009452Y0042953D01*
X0009517Y0042675D01*
X0009589Y0042399D01*
X0009667Y0042125D01*
X0009752Y0041852D01*
X0009844Y0041582D01*
X0009942Y0041314D01*
X0010046Y0041048D01*
X0010157Y0040785D01*
X0010274Y0040525D01*
X0010397Y0040267D01*
X0010527Y0040013D01*
X0010663Y0039762D01*
X0010804Y0039514D01*
X0010952Y0039270D01*
X0011105Y0039029D01*
X0011265Y0038793D01*
X0011430Y0038560D01*
X0011600Y0038331D01*
X0011776Y0038106D01*
X0011958Y0037886D01*
X0012144Y0037670D01*
X0012336Y0037459D01*
X0012533Y0037252D01*
X0012735Y0037050D01*
X0012942Y0036853D01*
X0013153Y0036661D01*
X0013369Y0036475D01*
X0013589Y0036293D01*
X0013814Y0036117D01*
X0014043Y0035947D01*
X0014276Y0035782D01*
X0014512Y0035622D01*
X0014753Y0035469D01*
X0014997Y0035321D01*
X0015245Y0035180D01*
X0015496Y0035044D01*
X0015750Y0034914D01*
X0016008Y0034791D01*
X0016268Y0034674D01*
X0016531Y0034563D01*
X0016797Y0034459D01*
X0017065Y0034361D01*
X0017335Y0034269D01*
X0017608Y0034184D01*
X0017882Y0034106D01*
X0018158Y0034034D01*
X0018436Y0033969D01*
X0018716Y0033911D01*
X0018997Y0033860D01*
X0019278Y0033815D01*
X0019561Y0033777D01*
X0019845Y0033746D01*
X0020129Y0033722D01*
X0020414Y0033705D01*
X0020700Y0033694D01*
X0020985Y0033691D01*
D11*
X0107599Y0101014D02*
X0107599Y0102195D01*
D12*
X0074338Y0077598D02*
X0074338Y0074128D01*
X0073470Y0073261D01*
X0070868Y0073261D01*
X0070868Y0078465D01*
X0073470Y0078465D01*
X0074338Y0077598D01*
X0069181Y0078465D02*
X0069181Y0073261D01*
X0065712Y0078465D01*
X0065712Y0073261D01*
X0064025Y0074128D02*
X0064025Y0075863D01*
X0062290Y0075863D01*
X0064025Y0074128D02*
X0063157Y0073261D01*
X0061423Y0073261D01*
X0060555Y0074128D01*
X0060555Y0077598D01*
X0061423Y0078465D01*
X0063157Y0078465D01*
X0064025Y0077598D01*
X0052934Y0077598D02*
X0052066Y0078465D01*
X0050331Y0078465D01*
X0049464Y0077598D01*
X0049464Y0074128D01*
X0050331Y0073261D01*
X0052066Y0073261D01*
X0052934Y0074128D01*
X0052934Y0075863D01*
X0051199Y0075863D01*
X0047761Y0073261D02*
X0046026Y0073261D01*
X0046894Y0073261D02*
X0046894Y0078465D01*
X0047761Y0078465D02*
X0046026Y0078465D01*
X0044340Y0077598D02*
X0043472Y0078465D01*
X0041737Y0078465D01*
X0040870Y0077598D01*
X0040870Y0076731D01*
X0041737Y0075863D01*
X0043472Y0075863D01*
X0044340Y0074996D01*
X0044340Y0074128D01*
X0043472Y0073261D01*
X0041737Y0073261D01*
X0040870Y0074128D01*
X0026385Y0193889D02*
X0024383Y0193889D01*
X0024383Y0194890D01*
X0024717Y0195223D01*
X0025384Y0195223D01*
X0025718Y0194890D01*
X0025718Y0193889D01*
X0026051Y0196099D02*
X0024717Y0196099D01*
X0024383Y0196432D01*
X0024383Y0197100D01*
X0024717Y0197433D01*
X0026051Y0197433D01*
X0026385Y0197100D01*
X0026385Y0196432D01*
X0026051Y0196099D01*
X0026385Y0198309D02*
X0024383Y0198309D01*
X0024383Y0199643D02*
X0026385Y0199643D01*
X0025718Y0198976D01*
X0026385Y0198309D01*
X0026385Y0200519D02*
X0024383Y0200519D01*
X0024383Y0201853D01*
X0024383Y0202728D02*
X0024383Y0203729D01*
X0024717Y0204063D01*
X0025384Y0204063D01*
X0025718Y0203729D01*
X0025718Y0202728D01*
X0026385Y0202728D02*
X0024383Y0202728D01*
X0025718Y0203396D02*
X0026385Y0204063D01*
X0026719Y0204938D02*
X0026719Y0206273D01*
X0026051Y0207148D02*
X0026385Y0207482D01*
X0026385Y0207815D01*
X0026051Y0208149D01*
X0024383Y0208149D01*
X0024383Y0207815D02*
X0024383Y0208483D01*
X0025051Y0209358D02*
X0024383Y0210025D01*
X0025051Y0210693D01*
X0026385Y0210693D01*
X0026051Y0211568D02*
X0024717Y0211568D01*
X0024383Y0211902D01*
X0024383Y0212569D01*
X0024717Y0212902D01*
X0024383Y0213778D02*
X0026385Y0213778D01*
X0025718Y0213778D02*
X0024383Y0215112D01*
X0025384Y0214111D02*
X0026385Y0215112D01*
X0026051Y0212902D02*
X0026385Y0212569D01*
X0026385Y0211902D01*
X0026051Y0211568D01*
X0025384Y0210693D02*
X0025384Y0209358D01*
X0025051Y0209358D02*
X0026385Y0209358D01*
X0028383Y0208525D02*
X0030385Y0208525D01*
X0030385Y0207858D02*
X0030385Y0209193D01*
X0030385Y0210068D02*
X0029051Y0211402D01*
X0028717Y0211402D01*
X0028383Y0211069D01*
X0028383Y0210402D01*
X0028717Y0210068D01*
X0028383Y0208525D02*
X0029051Y0207858D01*
X0030385Y0210068D02*
X0030385Y0211402D01*
X0029718Y0212278D02*
X0030385Y0212945D01*
X0029718Y0213612D01*
X0028383Y0213612D01*
X0028383Y0212278D02*
X0029718Y0212278D01*
X0026385Y0201853D02*
X0026385Y0200519D01*
X0025384Y0200519D02*
X0025384Y0201186D01*
X0140728Y0201961D02*
X0145332Y0201961D01*
X0145332Y0200426D02*
X0145332Y0203496D01*
X0142263Y0200426D02*
X0140728Y0201961D01*
X0141496Y0198892D02*
X0140728Y0198124D01*
X0140728Y0195822D01*
X0145332Y0195822D01*
X0145332Y0198124D01*
X0144565Y0198892D01*
X0141496Y0198892D01*
D13*
X0113125Y0074145D02*
X0111674Y0074145D01*
X0111674Y0071243D01*
X0113125Y0071243D01*
X0113609Y0071726D01*
X0113609Y0073661D01*
X0113125Y0074145D01*
X0110662Y0074145D02*
X0110662Y0071243D01*
X0108727Y0074145D01*
X0108727Y0071243D01*
X0107716Y0071726D02*
X0107716Y0072694D01*
X0106748Y0072694D01*
X0105781Y0073661D02*
X0105781Y0071726D01*
X0106264Y0071243D01*
X0107232Y0071243D01*
X0107716Y0071726D01*
X0107716Y0073661D02*
X0107232Y0074145D01*
X0106264Y0074145D01*
X0105781Y0073661D01*
X0102784Y0073661D02*
X0102300Y0074145D01*
X0101333Y0074145D01*
X0100849Y0073661D01*
X0100849Y0071726D01*
X0101333Y0071243D01*
X0102300Y0071243D01*
X0102784Y0071726D01*
X0102784Y0072694D01*
X0101817Y0072694D01*
X0099852Y0074145D02*
X0098885Y0074145D01*
X0099368Y0074145D02*
X0099368Y0071243D01*
X0098885Y0071243D02*
X0099852Y0071243D01*
X0097873Y0071726D02*
X0097873Y0072210D01*
X0097389Y0072694D01*
X0096422Y0072694D01*
X0095938Y0073177D01*
X0095938Y0073661D01*
X0096422Y0074145D01*
X0097389Y0074145D01*
X0097873Y0073661D01*
X0097873Y0071726D02*
X0097389Y0071243D01*
X0096422Y0071243D01*
X0095938Y0071726D01*
D14*
X0097261Y0087391D02*
X0094308Y0087391D01*
X0093324Y0088375D01*
X0093324Y0090343D01*
X0094308Y0091327D01*
X0097261Y0091327D01*
X0090815Y0092311D02*
X0089831Y0093296D01*
X0087863Y0093296D01*
X0086879Y0092311D01*
X0086879Y0091327D01*
X0087863Y0090343D01*
X0089831Y0090343D01*
X0090815Y0089359D01*
X0090815Y0088375D01*
X0089831Y0087391D01*
X0087863Y0087391D01*
X0086879Y0088375D01*
X0084550Y0087391D02*
X0082582Y0087391D01*
X0083566Y0087391D02*
X0083566Y0093296D01*
X0082582Y0093296D02*
X0084550Y0093296D01*
X0080253Y0093296D02*
X0078285Y0093296D01*
X0079269Y0093296D02*
X0079269Y0087391D01*
X0078285Y0087391D02*
X0080253Y0087391D01*
X0069510Y0087391D02*
X0068526Y0087391D01*
X0068526Y0088375D01*
X0069510Y0088375D01*
X0069510Y0087391D01*
X0067542Y0085422D01*
X0058588Y0087391D02*
X0054651Y0087391D01*
X0058588Y0091327D01*
X0058588Y0092311D01*
X0057604Y0093296D01*
X0055635Y0093296D01*
X0054651Y0092311D01*
X0052142Y0092311D02*
X0051158Y0093296D01*
X0048206Y0093296D01*
X0048206Y0087391D01*
X0051158Y0087391D01*
X0052142Y0088375D01*
X0052142Y0092311D01*
X0045697Y0092311D02*
X0044713Y0093296D01*
X0042744Y0093296D01*
X0041760Y0092311D01*
X0039251Y0093296D02*
X0039251Y0087391D01*
X0041760Y0087391D02*
X0045697Y0091327D01*
X0045697Y0092311D01*
X0045697Y0087391D02*
X0041760Y0087391D01*
X0037283Y0091327D02*
X0039251Y0093296D01*
X0037283Y0091327D02*
X0035315Y0093296D01*
X0035315Y0087391D01*
X0177421Y0181741D02*
X0178405Y0180757D01*
X0180373Y0180757D01*
X0181358Y0181741D01*
X0183866Y0181741D02*
X0184851Y0180757D01*
X0186819Y0180757D01*
X0187803Y0181741D01*
X0187803Y0185678D01*
X0186819Y0186662D01*
X0184851Y0186662D01*
X0183866Y0185678D01*
X0183866Y0181741D01*
X0181358Y0185678D02*
X0180373Y0186662D01*
X0178405Y0186662D01*
X0177421Y0185678D01*
X0177421Y0181741D01*
X0190312Y0180757D02*
X0192280Y0180757D01*
X0191296Y0180757D02*
X0191296Y0186662D01*
X0190312Y0186662D02*
X0192280Y0186662D01*
X0194609Y0186662D02*
X0194609Y0180757D01*
X0198546Y0180757D01*
D15*
X0099351Y0156990D02*
X0099351Y0122990D01*
X0099349Y0122883D01*
X0099343Y0122776D01*
X0099334Y0122669D01*
X0099320Y0122563D01*
X0099303Y0122457D01*
X0099282Y0122352D01*
X0099258Y0122248D01*
X0099229Y0122145D01*
X0099197Y0122043D01*
X0099162Y0121942D01*
X0099123Y0121842D01*
X0099080Y0121744D01*
X0099034Y0121647D01*
X0098984Y0121552D01*
X0098931Y0121459D01*
X0098875Y0121368D01*
X0098815Y0121279D01*
X0098753Y0121192D01*
X0098687Y0121108D01*
X0098618Y0121025D01*
X0098547Y0120946D01*
X0098472Y0120869D01*
X0098395Y0120794D01*
X0098316Y0120723D01*
X0098233Y0120654D01*
X0098149Y0120588D01*
X0098062Y0120526D01*
X0097973Y0120466D01*
X0097882Y0120410D01*
X0097789Y0120357D01*
X0097694Y0120307D01*
X0097597Y0120261D01*
X0097499Y0120218D01*
X0097399Y0120179D01*
X0097298Y0120144D01*
X0097196Y0120112D01*
X0097093Y0120083D01*
X0096989Y0120059D01*
X0096884Y0120038D01*
X0096778Y0120021D01*
X0096672Y0120007D01*
X0096565Y0119998D01*
X0096458Y0119992D01*
X0096351Y0119990D01*
X0084351Y0119990D01*
X0084351Y0159990D01*
X0095851Y0159990D01*
X0095965Y0159997D01*
X0096078Y0160000D01*
X0096192Y0159999D01*
X0096306Y0159994D01*
X0096419Y0159984D01*
X0096532Y0159971D01*
X0096645Y0159954D01*
X0096757Y0159933D01*
X0096868Y0159909D01*
X0096978Y0159880D01*
X0097087Y0159847D01*
X0097195Y0159811D01*
X0097301Y0159771D01*
X0097406Y0159727D01*
X0097510Y0159680D01*
X0097611Y0159629D01*
X0097711Y0159575D01*
X0097809Y0159517D01*
X0097905Y0159455D01*
X0097999Y0159391D01*
X0098090Y0159323D01*
X0098179Y0159252D01*
X0098265Y0159178D01*
X0098349Y0159101D01*
X0098430Y0159021D01*
X0098508Y0158938D01*
X0098584Y0158853D01*
X0098656Y0158765D01*
X0098725Y0158674D01*
X0098791Y0158582D01*
X0098854Y0158487D01*
X0098913Y0158390D01*
X0098969Y0158290D01*
X0099021Y0158189D01*
X0099070Y0158087D01*
X0099115Y0157982D01*
X0099157Y0157876D01*
X0099194Y0157769D01*
X0099228Y0157660D01*
X0099259Y0157551D01*
X0099285Y0157440D01*
X0099307Y0157328D01*
X0099326Y0157216D01*
X0099341Y0157103D01*
X0099351Y0156990D01*
X0084351Y0159990D02*
X0081851Y0159990D01*
X0081851Y0119990D01*
X0084351Y0119990D01*
X0080040Y0107490D02*
X0018165Y0107490D01*
X0018065Y0107480D01*
X0017965Y0107474D01*
X0017866Y0107472D01*
X0017766Y0107474D01*
X0017666Y0107480D01*
X0017567Y0107490D01*
X0017468Y0107503D01*
X0017369Y0107521D01*
X0017272Y0107542D01*
X0017175Y0107568D01*
X0017080Y0107597D01*
X0016985Y0107630D01*
X0016892Y0107667D01*
X0016801Y0107707D01*
X0016711Y0107751D01*
X0016623Y0107798D01*
X0016537Y0107849D01*
X0016453Y0107903D01*
X0016372Y0107961D01*
X0016293Y0108022D01*
X0016216Y0108085D01*
X0016141Y0108152D01*
X0016070Y0108222D01*
X0016001Y0108294D01*
X0015935Y0108369D01*
X0015873Y0108447D01*
X0015813Y0108527D01*
X0015756Y0108610D01*
X0015703Y0108694D01*
X0015654Y0108781D01*
X0015607Y0108870D01*
X0015565Y0108960D01*
X0015526Y0109052D01*
X0015490Y0109145D01*
X0015459Y0109240D01*
X0015431Y0109336D01*
X0015407Y0109433D01*
X0015386Y0109531D01*
X0015370Y0109629D01*
X0015358Y0109728D01*
X0015349Y0109828D01*
X0015345Y0109928D01*
X0015344Y0110027D01*
X0015348Y0110127D01*
X0015355Y0110227D01*
X0015366Y0110326D01*
X0015382Y0110425D01*
X0015401Y0110523D01*
X0015424Y0110620D01*
X0015451Y0110716D01*
X0015481Y0110811D01*
X0015516Y0110905D01*
X0015554Y0110998D01*
X0015596Y0111088D01*
X0015641Y0111177D01*
X0015690Y0111265D01*
X0015742Y0111350D01*
X0015797Y0111433D01*
X0015856Y0111513D01*
X0015918Y0111592D01*
X0015983Y0111668D01*
X0016051Y0111741D01*
X0016122Y0111811D01*
X0016195Y0111879D01*
X0016272Y0111944D01*
X0016350Y0112005D01*
X0016431Y0112064D01*
X0016515Y0112119D01*
X0016600Y0112170D01*
X0016687Y0112219D01*
X0016777Y0112264D01*
X0016868Y0112305D01*
X0016960Y0112343D01*
X0017054Y0112377D01*
X0017149Y0112407D01*
X0017246Y0112433D01*
X0017343Y0112456D01*
X0017441Y0112474D01*
X0017540Y0112489D01*
X0017540Y0112490D02*
X0059415Y0114365D01*
X0059415Y0124990D02*
X0017540Y0126240D01*
X0017442Y0126242D01*
X0017344Y0126248D01*
X0017246Y0126257D01*
X0017149Y0126271D01*
X0017052Y0126288D01*
X0016956Y0126309D01*
X0016861Y0126334D01*
X0016767Y0126362D01*
X0016675Y0126395D01*
X0016583Y0126430D01*
X0016493Y0126470D01*
X0016405Y0126512D01*
X0016318Y0126559D01*
X0016234Y0126608D01*
X0016151Y0126661D01*
X0016071Y0126717D01*
X0015992Y0126777D01*
X0015916Y0126839D01*
X0015843Y0126904D01*
X0015772Y0126972D01*
X0015704Y0127043D01*
X0015639Y0127116D01*
X0015577Y0127192D01*
X0015517Y0127271D01*
X0015461Y0127351D01*
X0015408Y0127434D01*
X0015359Y0127518D01*
X0015312Y0127605D01*
X0015270Y0127693D01*
X0015230Y0127783D01*
X0015195Y0127875D01*
X0015162Y0127967D01*
X0015134Y0128061D01*
X0015109Y0128156D01*
X0015088Y0128252D01*
X0015071Y0128349D01*
X0015057Y0128446D01*
X0015048Y0128544D01*
X0015042Y0128642D01*
X0015040Y0128740D01*
X0015042Y0128838D01*
X0015048Y0128936D01*
X0015057Y0129034D01*
X0015071Y0129131D01*
X0015088Y0129228D01*
X0015109Y0129324D01*
X0015134Y0129419D01*
X0015162Y0129513D01*
X0015195Y0129605D01*
X0015230Y0129697D01*
X0015270Y0129787D01*
X0015312Y0129875D01*
X0015359Y0129962D01*
X0015408Y0130046D01*
X0015461Y0130129D01*
X0015517Y0130209D01*
X0015577Y0130288D01*
X0015639Y0130364D01*
X0015704Y0130437D01*
X0015772Y0130508D01*
X0015843Y0130576D01*
X0015916Y0130641D01*
X0015992Y0130703D01*
X0016071Y0130763D01*
X0016151Y0130819D01*
X0016234Y0130872D01*
X0016318Y0130921D01*
X0016405Y0130968D01*
X0016493Y0131010D01*
X0016583Y0131050D01*
X0016675Y0131085D01*
X0016767Y0131118D01*
X0016861Y0131146D01*
X0016956Y0131171D01*
X0017052Y0131192D01*
X0017149Y0131209D01*
X0017246Y0131223D01*
X0017344Y0131232D01*
X0017442Y0131238D01*
X0017540Y0131240D01*
X0066290Y0131240D01*
X0066290Y0148740D01*
X0017540Y0148740D01*
X0017442Y0148742D01*
X0017344Y0148748D01*
X0017246Y0148757D01*
X0017149Y0148771D01*
X0017052Y0148788D01*
X0016956Y0148809D01*
X0016861Y0148834D01*
X0016767Y0148862D01*
X0016675Y0148895D01*
X0016583Y0148930D01*
X0016493Y0148970D01*
X0016405Y0149012D01*
X0016318Y0149059D01*
X0016234Y0149108D01*
X0016151Y0149161D01*
X0016071Y0149217D01*
X0015992Y0149277D01*
X0015916Y0149339D01*
X0015843Y0149404D01*
X0015772Y0149472D01*
X0015704Y0149543D01*
X0015639Y0149616D01*
X0015577Y0149692D01*
X0015517Y0149771D01*
X0015461Y0149851D01*
X0015408Y0149934D01*
X0015359Y0150018D01*
X0015312Y0150105D01*
X0015270Y0150193D01*
X0015230Y0150283D01*
X0015195Y0150375D01*
X0015162Y0150467D01*
X0015134Y0150561D01*
X0015109Y0150656D01*
X0015088Y0150752D01*
X0015071Y0150849D01*
X0015057Y0150946D01*
X0015048Y0151044D01*
X0015042Y0151142D01*
X0015040Y0151240D01*
X0015042Y0151338D01*
X0015048Y0151436D01*
X0015057Y0151534D01*
X0015071Y0151631D01*
X0015088Y0151728D01*
X0015109Y0151824D01*
X0015134Y0151919D01*
X0015162Y0152013D01*
X0015195Y0152105D01*
X0015230Y0152197D01*
X0015270Y0152287D01*
X0015312Y0152375D01*
X0015359Y0152462D01*
X0015408Y0152546D01*
X0015461Y0152629D01*
X0015517Y0152709D01*
X0015577Y0152788D01*
X0015639Y0152864D01*
X0015704Y0152937D01*
X0015772Y0153008D01*
X0015843Y0153076D01*
X0015916Y0153141D01*
X0015992Y0153203D01*
X0016071Y0153263D01*
X0016151Y0153319D01*
X0016234Y0153372D01*
X0016318Y0153421D01*
X0016405Y0153468D01*
X0016493Y0153510D01*
X0016583Y0153550D01*
X0016675Y0153585D01*
X0016767Y0153618D01*
X0016861Y0153646D01*
X0016956Y0153671D01*
X0017052Y0153692D01*
X0017149Y0153709D01*
X0017246Y0153723D01*
X0017344Y0153732D01*
X0017442Y0153738D01*
X0017540Y0153740D01*
X0059415Y0154990D01*
X0061290Y0156865D02*
X0061290Y0156865D01*
X0061290Y0163740D02*
X0061290Y0163741D01*
X0059415Y0165615D02*
X0017540Y0167490D01*
X0017442Y0167492D01*
X0017344Y0167498D01*
X0017246Y0167507D01*
X0017149Y0167521D01*
X0017052Y0167538D01*
X0016956Y0167559D01*
X0016861Y0167584D01*
X0016767Y0167612D01*
X0016675Y0167645D01*
X0016583Y0167680D01*
X0016493Y0167720D01*
X0016405Y0167762D01*
X0016318Y0167809D01*
X0016234Y0167858D01*
X0016151Y0167911D01*
X0016071Y0167967D01*
X0015992Y0168027D01*
X0015916Y0168089D01*
X0015843Y0168154D01*
X0015772Y0168222D01*
X0015704Y0168293D01*
X0015639Y0168366D01*
X0015577Y0168442D01*
X0015517Y0168521D01*
X0015461Y0168601D01*
X0015408Y0168684D01*
X0015359Y0168768D01*
X0015312Y0168855D01*
X0015270Y0168943D01*
X0015230Y0169033D01*
X0015195Y0169125D01*
X0015162Y0169217D01*
X0015134Y0169311D01*
X0015109Y0169406D01*
X0015088Y0169502D01*
X0015071Y0169599D01*
X0015057Y0169696D01*
X0015048Y0169794D01*
X0015042Y0169892D01*
X0015040Y0169990D01*
X0015042Y0170088D01*
X0015048Y0170186D01*
X0015057Y0170284D01*
X0015071Y0170381D01*
X0015088Y0170478D01*
X0015109Y0170574D01*
X0015134Y0170669D01*
X0015162Y0170763D01*
X0015195Y0170855D01*
X0015230Y0170947D01*
X0015270Y0171037D01*
X0015312Y0171125D01*
X0015359Y0171212D01*
X0015408Y0171296D01*
X0015461Y0171379D01*
X0015517Y0171459D01*
X0015577Y0171538D01*
X0015639Y0171614D01*
X0015704Y0171687D01*
X0015772Y0171758D01*
X0015843Y0171826D01*
X0015916Y0171891D01*
X0015992Y0171953D01*
X0016071Y0172013D01*
X0016151Y0172069D01*
X0016234Y0172122D01*
X0016318Y0172171D01*
X0016405Y0172218D01*
X0016493Y0172260D01*
X0016583Y0172300D01*
X0016675Y0172335D01*
X0016767Y0172368D01*
X0016861Y0172396D01*
X0016956Y0172421D01*
X0017052Y0172442D01*
X0017149Y0172459D01*
X0017246Y0172473D01*
X0017344Y0172482D01*
X0017442Y0172488D01*
X0017540Y0172490D01*
X0080040Y0172490D01*
X0080040Y0107490D01*
X0075040Y0138490D02*
X0075040Y0138990D01*
X0075540Y0139990D01*
X0075040Y0140990D01*
X0075040Y0138990D01*
X0077040Y0139990D01*
X0075540Y0139990D01*
X0070040Y0139990D01*
X0075040Y0140990D02*
X0077040Y0139990D01*
X0077540Y0139990D01*
X0075040Y0138490D01*
X0075040Y0140990D02*
X0075040Y0141490D01*
X0077540Y0139990D01*
X0149654Y0008250D02*
X0151654Y0008250D01*
X0149654Y0008250D02*
X0149654Y0004250D01*
X0151654Y0004250D01*
X0181654Y0004250D02*
X0183654Y0004250D01*
X0183654Y0008250D01*
X0181654Y0008250D01*
D16*
X0090577Y0163248D02*
X0086372Y0163248D01*
X0085321Y0164299D01*
X0085321Y0166402D01*
X0086372Y0167453D01*
X0090577Y0167453D01*
X0091628Y0166402D01*
X0091628Y0164299D01*
X0090577Y0163248D01*
X0089526Y0165351D02*
X0091628Y0167453D01*
X0091628Y0169695D02*
X0091628Y0173900D01*
X0091628Y0171798D02*
X0085321Y0171798D01*
X0087423Y0169695D01*
X0092484Y0186431D02*
X0092484Y0189301D01*
X0093918Y0187866D02*
X0091049Y0187866D01*
X0095653Y0188583D02*
X0097088Y0190018D01*
X0097088Y0185714D01*
X0098522Y0185714D02*
X0095653Y0185714D01*
X0100257Y0185714D02*
X0103126Y0188583D01*
X0103126Y0189301D01*
X0102409Y0190018D01*
X0100974Y0190018D01*
X0100257Y0189301D01*
X0100257Y0185714D02*
X0103126Y0185714D01*
X0104861Y0187149D02*
X0106296Y0185714D01*
X0107730Y0187149D01*
X0107730Y0190018D01*
X0104861Y0190018D02*
X0104861Y0187149D01*
D17*
X0074922Y0191171D02*
X0072166Y0191171D01*
X0074922Y0191171D02*
X0074922Y0199439D01*
X0074922Y0218337D02*
X0074922Y0226604D01*
X0032796Y0226604D01*
X0032796Y0191171D01*
X0053662Y0191171D01*
X0108536Y0149990D02*
X0108536Y0129990D01*
X0111536Y0129990D01*
X0111536Y0128990D01*
X0111536Y0129990D02*
X0114536Y0129990D01*
X0114536Y0149990D01*
X0111536Y0149990D01*
X0111536Y0150990D01*
X0111536Y0149990D02*
X0108536Y0149990D01*
X0117599Y0115431D02*
X0097599Y0115431D01*
X0097599Y0112431D01*
X0096599Y0112431D01*
X0097599Y0112431D02*
X0097599Y0109431D01*
X0117599Y0109431D01*
X0117599Y0112431D01*
X0118599Y0112431D01*
X0117599Y0112431D02*
X0117599Y0115431D01*
X0153243Y0058929D02*
X0157846Y0058929D01*
X0159381Y0057394D01*
X0159381Y0055859D01*
X0157846Y0054325D01*
X0153243Y0054325D01*
X0157846Y0054325D02*
X0159381Y0052790D01*
X0159381Y0051255D01*
X0157846Y0049721D01*
X0153243Y0049721D01*
X0153243Y0058929D01*
X0162450Y0058929D02*
X0162450Y0049721D01*
X0168589Y0049721D02*
X0168589Y0058929D01*
X0171658Y0057394D02*
X0171658Y0051255D01*
X0173193Y0049721D01*
X0176262Y0049721D01*
X0177797Y0051255D01*
X0177797Y0057394D02*
X0176262Y0058929D01*
X0173193Y0058929D01*
X0171658Y0057394D01*
X0168589Y0049721D02*
X0162450Y0058929D01*
D18*
X0146654Y0066250D02*
X0146654Y0041250D01*
X0151654Y0041250D01*
X0151654Y0008250D01*
X0151654Y0004250D01*
X0151654Y0001250D01*
X0181654Y0001250D01*
X0181654Y0004250D01*
X0181654Y0008250D01*
X0181654Y0041250D01*
X0151654Y0041250D01*
X0146654Y0066250D02*
X0136654Y0066250D01*
X0196654Y0066250D01*
X0196654Y0111250D01*
X0136654Y0111250D01*
X0136654Y0066250D01*
X0136654Y0111250D01*
X0196654Y0111250D01*
X0196654Y0066250D01*
X0186654Y0066250D01*
X0186654Y0041250D01*
X0181654Y0041250D01*
X0186654Y0066250D02*
X0146654Y0066250D01*
X0114725Y0065376D02*
X0114725Y0043376D01*
X0109725Y0043376D01*
X0109725Y0048376D01*
X0099725Y0048376D01*
X0099725Y0043376D01*
X0094725Y0043376D01*
X0094725Y0065376D01*
X0114725Y0065376D01*
X0109725Y0043376D02*
X0099725Y0043376D01*
X0076918Y0037376D02*
X0035918Y0037376D01*
X0035918Y0069376D01*
X0076918Y0069376D01*
X0076918Y0037376D01*
X0075918Y0043376D02*
X0036918Y0043376D01*
X0036918Y0063376D01*
X0075918Y0063376D01*
X0075918Y0043376D01*
X0057404Y0053376D02*
X0057407Y0053597D01*
X0057415Y0053818D01*
X0057428Y0054039D01*
X0057447Y0054260D01*
X0057472Y0054479D01*
X0057502Y0054699D01*
X0057537Y0054917D01*
X0057577Y0055135D01*
X0057623Y0055351D01*
X0057674Y0055566D01*
X0057731Y0055780D01*
X0057792Y0055993D01*
X0057859Y0056204D01*
X0057931Y0056413D01*
X0058008Y0056620D01*
X0058090Y0056826D01*
X0058177Y0057029D01*
X0058269Y0057230D01*
X0058366Y0057429D01*
X0058468Y0057625D01*
X0058575Y0057819D01*
X0058686Y0058010D01*
X0058802Y0058198D01*
X0058923Y0058384D01*
X0059048Y0058566D01*
X0059178Y0058746D01*
X0059312Y0058922D01*
X0059450Y0059094D01*
X0059593Y0059264D01*
X0059739Y0059429D01*
X0059890Y0059592D01*
X0060044Y0059750D01*
X0060202Y0059904D01*
X0060365Y0060055D01*
X0060530Y0060201D01*
X0060700Y0060344D01*
X0060872Y0060482D01*
X0061048Y0060616D01*
X0061228Y0060746D01*
X0061410Y0060871D01*
X0061596Y0060992D01*
X0061784Y0061108D01*
X0061975Y0061219D01*
X0062169Y0061326D01*
X0062365Y0061428D01*
X0062564Y0061525D01*
X0062765Y0061617D01*
X0062968Y0061704D01*
X0063174Y0061786D01*
X0063381Y0061863D01*
X0063590Y0061935D01*
X0063801Y0062002D01*
X0064014Y0062063D01*
X0064228Y0062120D01*
X0064443Y0062171D01*
X0064659Y0062217D01*
X0064877Y0062257D01*
X0065095Y0062292D01*
X0065315Y0062322D01*
X0065534Y0062347D01*
X0065755Y0062366D01*
X0065976Y0062379D01*
X0066197Y0062387D01*
X0066418Y0062390D01*
X0066639Y0062387D01*
X0066860Y0062379D01*
X0067081Y0062366D01*
X0067302Y0062347D01*
X0067521Y0062322D01*
X0067741Y0062292D01*
X0067959Y0062257D01*
X0068177Y0062217D01*
X0068393Y0062171D01*
X0068608Y0062120D01*
X0068822Y0062063D01*
X0069035Y0062002D01*
X0069246Y0061935D01*
X0069455Y0061863D01*
X0069662Y0061786D01*
X0069868Y0061704D01*
X0070071Y0061617D01*
X0070272Y0061525D01*
X0070471Y0061428D01*
X0070667Y0061326D01*
X0070861Y0061219D01*
X0071052Y0061108D01*
X0071240Y0060992D01*
X0071426Y0060871D01*
X0071608Y0060746D01*
X0071788Y0060616D01*
X0071964Y0060482D01*
X0072136Y0060344D01*
X0072306Y0060201D01*
X0072471Y0060055D01*
X0072634Y0059904D01*
X0072792Y0059750D01*
X0072946Y0059592D01*
X0073097Y0059429D01*
X0073243Y0059264D01*
X0073386Y0059094D01*
X0073524Y0058922D01*
X0073658Y0058746D01*
X0073788Y0058566D01*
X0073913Y0058384D01*
X0074034Y0058198D01*
X0074150Y0058010D01*
X0074261Y0057819D01*
X0074368Y0057625D01*
X0074470Y0057429D01*
X0074567Y0057230D01*
X0074659Y0057029D01*
X0074746Y0056826D01*
X0074828Y0056620D01*
X0074905Y0056413D01*
X0074977Y0056204D01*
X0075044Y0055993D01*
X0075105Y0055780D01*
X0075162Y0055566D01*
X0075213Y0055351D01*
X0075259Y0055135D01*
X0075299Y0054917D01*
X0075334Y0054699D01*
X0075364Y0054479D01*
X0075389Y0054260D01*
X0075408Y0054039D01*
X0075421Y0053818D01*
X0075429Y0053597D01*
X0075432Y0053376D01*
X0075429Y0053155D01*
X0075421Y0052934D01*
X0075408Y0052713D01*
X0075389Y0052492D01*
X0075364Y0052273D01*
X0075334Y0052053D01*
X0075299Y0051835D01*
X0075259Y0051617D01*
X0075213Y0051401D01*
X0075162Y0051186D01*
X0075105Y0050972D01*
X0075044Y0050759D01*
X0074977Y0050548D01*
X0074905Y0050339D01*
X0074828Y0050132D01*
X0074746Y0049926D01*
X0074659Y0049723D01*
X0074567Y0049522D01*
X0074470Y0049323D01*
X0074368Y0049127D01*
X0074261Y0048933D01*
X0074150Y0048742D01*
X0074034Y0048554D01*
X0073913Y0048368D01*
X0073788Y0048186D01*
X0073658Y0048006D01*
X0073524Y0047830D01*
X0073386Y0047658D01*
X0073243Y0047488D01*
X0073097Y0047323D01*
X0072946Y0047160D01*
X0072792Y0047002D01*
X0072634Y0046848D01*
X0072471Y0046697D01*
X0072306Y0046551D01*
X0072136Y0046408D01*
X0071964Y0046270D01*
X0071788Y0046136D01*
X0071608Y0046006D01*
X0071426Y0045881D01*
X0071240Y0045760D01*
X0071052Y0045644D01*
X0070861Y0045533D01*
X0070667Y0045426D01*
X0070471Y0045324D01*
X0070272Y0045227D01*
X0070071Y0045135D01*
X0069868Y0045048D01*
X0069662Y0044966D01*
X0069455Y0044889D01*
X0069246Y0044817D01*
X0069035Y0044750D01*
X0068822Y0044689D01*
X0068608Y0044632D01*
X0068393Y0044581D01*
X0068177Y0044535D01*
X0067959Y0044495D01*
X0067741Y0044460D01*
X0067521Y0044430D01*
X0067302Y0044405D01*
X0067081Y0044386D01*
X0066860Y0044373D01*
X0066639Y0044365D01*
X0066418Y0044362D01*
X0066197Y0044365D01*
X0065976Y0044373D01*
X0065755Y0044386D01*
X0065534Y0044405D01*
X0065315Y0044430D01*
X0065095Y0044460D01*
X0064877Y0044495D01*
X0064659Y0044535D01*
X0064443Y0044581D01*
X0064228Y0044632D01*
X0064014Y0044689D01*
X0063801Y0044750D01*
X0063590Y0044817D01*
X0063381Y0044889D01*
X0063174Y0044966D01*
X0062968Y0045048D01*
X0062765Y0045135D01*
X0062564Y0045227D01*
X0062365Y0045324D01*
X0062169Y0045426D01*
X0061975Y0045533D01*
X0061784Y0045644D01*
X0061596Y0045760D01*
X0061410Y0045881D01*
X0061228Y0046006D01*
X0061048Y0046136D01*
X0060872Y0046270D01*
X0060700Y0046408D01*
X0060530Y0046551D01*
X0060365Y0046697D01*
X0060202Y0046848D01*
X0060044Y0047002D01*
X0059890Y0047160D01*
X0059739Y0047323D01*
X0059593Y0047488D01*
X0059450Y0047658D01*
X0059312Y0047830D01*
X0059178Y0048006D01*
X0059048Y0048186D01*
X0058923Y0048368D01*
X0058802Y0048554D01*
X0058686Y0048742D01*
X0058575Y0048933D01*
X0058468Y0049127D01*
X0058366Y0049323D01*
X0058269Y0049522D01*
X0058177Y0049723D01*
X0058090Y0049926D01*
X0058008Y0050132D01*
X0057931Y0050339D01*
X0057859Y0050548D01*
X0057792Y0050759D01*
X0057731Y0050972D01*
X0057674Y0051186D01*
X0057623Y0051401D01*
X0057577Y0051617D01*
X0057537Y0051835D01*
X0057502Y0052053D01*
X0057472Y0052273D01*
X0057447Y0052492D01*
X0057428Y0052713D01*
X0057415Y0052934D01*
X0057407Y0053155D01*
X0057404Y0053376D01*
X0037404Y0053376D02*
X0037407Y0053597D01*
X0037415Y0053818D01*
X0037428Y0054039D01*
X0037447Y0054260D01*
X0037472Y0054479D01*
X0037502Y0054699D01*
X0037537Y0054917D01*
X0037577Y0055135D01*
X0037623Y0055351D01*
X0037674Y0055566D01*
X0037731Y0055780D01*
X0037792Y0055993D01*
X0037859Y0056204D01*
X0037931Y0056413D01*
X0038008Y0056620D01*
X0038090Y0056826D01*
X0038177Y0057029D01*
X0038269Y0057230D01*
X0038366Y0057429D01*
X0038468Y0057625D01*
X0038575Y0057819D01*
X0038686Y0058010D01*
X0038802Y0058198D01*
X0038923Y0058384D01*
X0039048Y0058566D01*
X0039178Y0058746D01*
X0039312Y0058922D01*
X0039450Y0059094D01*
X0039593Y0059264D01*
X0039739Y0059429D01*
X0039890Y0059592D01*
X0040044Y0059750D01*
X0040202Y0059904D01*
X0040365Y0060055D01*
X0040530Y0060201D01*
X0040700Y0060344D01*
X0040872Y0060482D01*
X0041048Y0060616D01*
X0041228Y0060746D01*
X0041410Y0060871D01*
X0041596Y0060992D01*
X0041784Y0061108D01*
X0041975Y0061219D01*
X0042169Y0061326D01*
X0042365Y0061428D01*
X0042564Y0061525D01*
X0042765Y0061617D01*
X0042968Y0061704D01*
X0043174Y0061786D01*
X0043381Y0061863D01*
X0043590Y0061935D01*
X0043801Y0062002D01*
X0044014Y0062063D01*
X0044228Y0062120D01*
X0044443Y0062171D01*
X0044659Y0062217D01*
X0044877Y0062257D01*
X0045095Y0062292D01*
X0045315Y0062322D01*
X0045534Y0062347D01*
X0045755Y0062366D01*
X0045976Y0062379D01*
X0046197Y0062387D01*
X0046418Y0062390D01*
X0046639Y0062387D01*
X0046860Y0062379D01*
X0047081Y0062366D01*
X0047302Y0062347D01*
X0047521Y0062322D01*
X0047741Y0062292D01*
X0047959Y0062257D01*
X0048177Y0062217D01*
X0048393Y0062171D01*
X0048608Y0062120D01*
X0048822Y0062063D01*
X0049035Y0062002D01*
X0049246Y0061935D01*
X0049455Y0061863D01*
X0049662Y0061786D01*
X0049868Y0061704D01*
X0050071Y0061617D01*
X0050272Y0061525D01*
X0050471Y0061428D01*
X0050667Y0061326D01*
X0050861Y0061219D01*
X0051052Y0061108D01*
X0051240Y0060992D01*
X0051426Y0060871D01*
X0051608Y0060746D01*
X0051788Y0060616D01*
X0051964Y0060482D01*
X0052136Y0060344D01*
X0052306Y0060201D01*
X0052471Y0060055D01*
X0052634Y0059904D01*
X0052792Y0059750D01*
X0052946Y0059592D01*
X0053097Y0059429D01*
X0053243Y0059264D01*
X0053386Y0059094D01*
X0053524Y0058922D01*
X0053658Y0058746D01*
X0053788Y0058566D01*
X0053913Y0058384D01*
X0054034Y0058198D01*
X0054150Y0058010D01*
X0054261Y0057819D01*
X0054368Y0057625D01*
X0054470Y0057429D01*
X0054567Y0057230D01*
X0054659Y0057029D01*
X0054746Y0056826D01*
X0054828Y0056620D01*
X0054905Y0056413D01*
X0054977Y0056204D01*
X0055044Y0055993D01*
X0055105Y0055780D01*
X0055162Y0055566D01*
X0055213Y0055351D01*
X0055259Y0055135D01*
X0055299Y0054917D01*
X0055334Y0054699D01*
X0055364Y0054479D01*
X0055389Y0054260D01*
X0055408Y0054039D01*
X0055421Y0053818D01*
X0055429Y0053597D01*
X0055432Y0053376D01*
X0055429Y0053155D01*
X0055421Y0052934D01*
X0055408Y0052713D01*
X0055389Y0052492D01*
X0055364Y0052273D01*
X0055334Y0052053D01*
X0055299Y0051835D01*
X0055259Y0051617D01*
X0055213Y0051401D01*
X0055162Y0051186D01*
X0055105Y0050972D01*
X0055044Y0050759D01*
X0054977Y0050548D01*
X0054905Y0050339D01*
X0054828Y0050132D01*
X0054746Y0049926D01*
X0054659Y0049723D01*
X0054567Y0049522D01*
X0054470Y0049323D01*
X0054368Y0049127D01*
X0054261Y0048933D01*
X0054150Y0048742D01*
X0054034Y0048554D01*
X0053913Y0048368D01*
X0053788Y0048186D01*
X0053658Y0048006D01*
X0053524Y0047830D01*
X0053386Y0047658D01*
X0053243Y0047488D01*
X0053097Y0047323D01*
X0052946Y0047160D01*
X0052792Y0047002D01*
X0052634Y0046848D01*
X0052471Y0046697D01*
X0052306Y0046551D01*
X0052136Y0046408D01*
X0051964Y0046270D01*
X0051788Y0046136D01*
X0051608Y0046006D01*
X0051426Y0045881D01*
X0051240Y0045760D01*
X0051052Y0045644D01*
X0050861Y0045533D01*
X0050667Y0045426D01*
X0050471Y0045324D01*
X0050272Y0045227D01*
X0050071Y0045135D01*
X0049868Y0045048D01*
X0049662Y0044966D01*
X0049455Y0044889D01*
X0049246Y0044817D01*
X0049035Y0044750D01*
X0048822Y0044689D01*
X0048608Y0044632D01*
X0048393Y0044581D01*
X0048177Y0044535D01*
X0047959Y0044495D01*
X0047741Y0044460D01*
X0047521Y0044430D01*
X0047302Y0044405D01*
X0047081Y0044386D01*
X0046860Y0044373D01*
X0046639Y0044365D01*
X0046418Y0044362D01*
X0046197Y0044365D01*
X0045976Y0044373D01*
X0045755Y0044386D01*
X0045534Y0044405D01*
X0045315Y0044430D01*
X0045095Y0044460D01*
X0044877Y0044495D01*
X0044659Y0044535D01*
X0044443Y0044581D01*
X0044228Y0044632D01*
X0044014Y0044689D01*
X0043801Y0044750D01*
X0043590Y0044817D01*
X0043381Y0044889D01*
X0043174Y0044966D01*
X0042968Y0045048D01*
X0042765Y0045135D01*
X0042564Y0045227D01*
X0042365Y0045324D01*
X0042169Y0045426D01*
X0041975Y0045533D01*
X0041784Y0045644D01*
X0041596Y0045760D01*
X0041410Y0045881D01*
X0041228Y0046006D01*
X0041048Y0046136D01*
X0040872Y0046270D01*
X0040700Y0046408D01*
X0040530Y0046551D01*
X0040365Y0046697D01*
X0040202Y0046848D01*
X0040044Y0047002D01*
X0039890Y0047160D01*
X0039739Y0047323D01*
X0039593Y0047488D01*
X0039450Y0047658D01*
X0039312Y0047830D01*
X0039178Y0048006D01*
X0039048Y0048186D01*
X0038923Y0048368D01*
X0038802Y0048554D01*
X0038686Y0048742D01*
X0038575Y0048933D01*
X0038468Y0049127D01*
X0038366Y0049323D01*
X0038269Y0049522D01*
X0038177Y0049723D01*
X0038090Y0049926D01*
X0038008Y0050132D01*
X0037931Y0050339D01*
X0037859Y0050548D01*
X0037792Y0050759D01*
X0037731Y0050972D01*
X0037674Y0051186D01*
X0037623Y0051401D01*
X0037577Y0051617D01*
X0037537Y0051835D01*
X0037502Y0052053D01*
X0037472Y0052273D01*
X0037447Y0052492D01*
X0037428Y0052713D01*
X0037415Y0052934D01*
X0037407Y0053155D01*
X0037404Y0053376D01*
X0103429Y0116681D02*
X0104697Y0116681D01*
X0104063Y0116681D02*
X0104063Y0118583D01*
X0103429Y0117949D01*
X0105639Y0118266D02*
X0105639Y0116998D01*
X0106907Y0118266D01*
X0106907Y0116998D01*
X0106590Y0116681D01*
X0105956Y0116681D01*
X0105639Y0116998D01*
X0105639Y0118266D02*
X0105956Y0118583D01*
X0106590Y0118583D01*
X0106907Y0118266D01*
X0107849Y0118266D02*
X0107849Y0116998D01*
X0109117Y0118266D01*
X0109117Y0116998D01*
X0108800Y0116681D01*
X0108166Y0116681D01*
X0107849Y0116998D01*
X0107849Y0118266D02*
X0108166Y0118583D01*
X0108800Y0118583D01*
X0109117Y0118266D01*
X0110059Y0118583D02*
X0110059Y0116681D01*
X0110059Y0117315D02*
X0111010Y0117315D01*
X0111327Y0117632D01*
X0111327Y0118266D01*
X0111010Y0118583D01*
X0110059Y0118583D01*
X0110693Y0117315D02*
X0111327Y0116681D01*
X0108483Y0108183D02*
X0108483Y0106281D01*
X0107849Y0106281D02*
X0109117Y0106281D01*
X0107849Y0107549D02*
X0108483Y0108183D01*
X0106907Y0107866D02*
X0106907Y0107232D01*
X0106590Y0106915D01*
X0105639Y0106915D01*
X0105639Y0106281D02*
X0105639Y0108183D01*
X0106590Y0108183D01*
X0106907Y0107866D01*
X0106273Y0106915D02*
X0106907Y0106281D01*
X0107286Y0136925D02*
X0107286Y0138193D01*
X0107286Y0137559D02*
X0105385Y0137559D01*
X0106018Y0136925D01*
X0105702Y0139135D02*
X0105385Y0139452D01*
X0105385Y0140086D01*
X0105702Y0140403D01*
X0106969Y0139135D01*
X0107286Y0139452D01*
X0107286Y0140086D01*
X0106969Y0140403D01*
X0105702Y0140403D01*
X0105385Y0141345D02*
X0107286Y0141345D01*
X0106652Y0141345D02*
X0105385Y0142613D01*
X0106335Y0141662D02*
X0107286Y0142613D01*
X0106969Y0139135D02*
X0105702Y0139135D01*
X0115785Y0138981D02*
X0116102Y0139298D01*
X0116735Y0139298D01*
X0117052Y0138981D01*
X0117052Y0138030D01*
X0117052Y0138664D02*
X0117686Y0139298D01*
X0117686Y0140240D02*
X0116418Y0141508D01*
X0116102Y0141508D01*
X0115785Y0141191D01*
X0115785Y0140557D01*
X0116102Y0140240D01*
X0115785Y0138981D02*
X0115785Y0138030D01*
X0117686Y0138030D01*
X0117686Y0140240D02*
X0117686Y0141508D01*
X0132036Y0192888D02*
X0091036Y0192888D01*
X0091036Y0224888D01*
X0132036Y0224888D01*
X0132036Y0192888D01*
X0131036Y0198888D02*
X0092036Y0198888D01*
X0092036Y0218888D01*
X0131036Y0218888D01*
X0131036Y0198888D01*
X0112522Y0208888D02*
X0112525Y0209109D01*
X0112533Y0209330D01*
X0112546Y0209551D01*
X0112565Y0209772D01*
X0112590Y0209991D01*
X0112620Y0210211D01*
X0112655Y0210429D01*
X0112695Y0210647D01*
X0112741Y0210863D01*
X0112792Y0211078D01*
X0112849Y0211292D01*
X0112910Y0211505D01*
X0112977Y0211716D01*
X0113049Y0211925D01*
X0113126Y0212132D01*
X0113208Y0212338D01*
X0113295Y0212541D01*
X0113387Y0212742D01*
X0113484Y0212941D01*
X0113586Y0213137D01*
X0113693Y0213331D01*
X0113804Y0213522D01*
X0113920Y0213710D01*
X0114041Y0213896D01*
X0114166Y0214078D01*
X0114296Y0214258D01*
X0114430Y0214434D01*
X0114568Y0214606D01*
X0114711Y0214776D01*
X0114857Y0214941D01*
X0115008Y0215104D01*
X0115162Y0215262D01*
X0115320Y0215416D01*
X0115483Y0215567D01*
X0115648Y0215713D01*
X0115818Y0215856D01*
X0115990Y0215994D01*
X0116166Y0216128D01*
X0116346Y0216258D01*
X0116528Y0216383D01*
X0116714Y0216504D01*
X0116902Y0216620D01*
X0117093Y0216731D01*
X0117287Y0216838D01*
X0117483Y0216940D01*
X0117682Y0217037D01*
X0117883Y0217129D01*
X0118086Y0217216D01*
X0118292Y0217298D01*
X0118499Y0217375D01*
X0118708Y0217447D01*
X0118919Y0217514D01*
X0119132Y0217575D01*
X0119346Y0217632D01*
X0119561Y0217683D01*
X0119777Y0217729D01*
X0119995Y0217769D01*
X0120213Y0217804D01*
X0120433Y0217834D01*
X0120652Y0217859D01*
X0120873Y0217878D01*
X0121094Y0217891D01*
X0121315Y0217899D01*
X0121536Y0217902D01*
X0121757Y0217899D01*
X0121978Y0217891D01*
X0122199Y0217878D01*
X0122420Y0217859D01*
X0122639Y0217834D01*
X0122859Y0217804D01*
X0123077Y0217769D01*
X0123295Y0217729D01*
X0123511Y0217683D01*
X0123726Y0217632D01*
X0123940Y0217575D01*
X0124153Y0217514D01*
X0124364Y0217447D01*
X0124573Y0217375D01*
X0124780Y0217298D01*
X0124986Y0217216D01*
X0125189Y0217129D01*
X0125390Y0217037D01*
X0125589Y0216940D01*
X0125785Y0216838D01*
X0125979Y0216731D01*
X0126170Y0216620D01*
X0126358Y0216504D01*
X0126544Y0216383D01*
X0126726Y0216258D01*
X0126906Y0216128D01*
X0127082Y0215994D01*
X0127254Y0215856D01*
X0127424Y0215713D01*
X0127589Y0215567D01*
X0127752Y0215416D01*
X0127910Y0215262D01*
X0128064Y0215104D01*
X0128215Y0214941D01*
X0128361Y0214776D01*
X0128504Y0214606D01*
X0128642Y0214434D01*
X0128776Y0214258D01*
X0128906Y0214078D01*
X0129031Y0213896D01*
X0129152Y0213710D01*
X0129268Y0213522D01*
X0129379Y0213331D01*
X0129486Y0213137D01*
X0129588Y0212941D01*
X0129685Y0212742D01*
X0129777Y0212541D01*
X0129864Y0212338D01*
X0129946Y0212132D01*
X0130023Y0211925D01*
X0130095Y0211716D01*
X0130162Y0211505D01*
X0130223Y0211292D01*
X0130280Y0211078D01*
X0130331Y0210863D01*
X0130377Y0210647D01*
X0130417Y0210429D01*
X0130452Y0210211D01*
X0130482Y0209991D01*
X0130507Y0209772D01*
X0130526Y0209551D01*
X0130539Y0209330D01*
X0130547Y0209109D01*
X0130550Y0208888D01*
X0130547Y0208667D01*
X0130539Y0208446D01*
X0130526Y0208225D01*
X0130507Y0208004D01*
X0130482Y0207785D01*
X0130452Y0207565D01*
X0130417Y0207347D01*
X0130377Y0207129D01*
X0130331Y0206913D01*
X0130280Y0206698D01*
X0130223Y0206484D01*
X0130162Y0206271D01*
X0130095Y0206060D01*
X0130023Y0205851D01*
X0129946Y0205644D01*
X0129864Y0205438D01*
X0129777Y0205235D01*
X0129685Y0205034D01*
X0129588Y0204835D01*
X0129486Y0204639D01*
X0129379Y0204445D01*
X0129268Y0204254D01*
X0129152Y0204066D01*
X0129031Y0203880D01*
X0128906Y0203698D01*
X0128776Y0203518D01*
X0128642Y0203342D01*
X0128504Y0203170D01*
X0128361Y0203000D01*
X0128215Y0202835D01*
X0128064Y0202672D01*
X0127910Y0202514D01*
X0127752Y0202360D01*
X0127589Y0202209D01*
X0127424Y0202063D01*
X0127254Y0201920D01*
X0127082Y0201782D01*
X0126906Y0201648D01*
X0126726Y0201518D01*
X0126544Y0201393D01*
X0126358Y0201272D01*
X0126170Y0201156D01*
X0125979Y0201045D01*
X0125785Y0200938D01*
X0125589Y0200836D01*
X0125390Y0200739D01*
X0125189Y0200647D01*
X0124986Y0200560D01*
X0124780Y0200478D01*
X0124573Y0200401D01*
X0124364Y0200329D01*
X0124153Y0200262D01*
X0123940Y0200201D01*
X0123726Y0200144D01*
X0123511Y0200093D01*
X0123295Y0200047D01*
X0123077Y0200007D01*
X0122859Y0199972D01*
X0122639Y0199942D01*
X0122420Y0199917D01*
X0122199Y0199898D01*
X0121978Y0199885D01*
X0121757Y0199877D01*
X0121536Y0199874D01*
X0121315Y0199877D01*
X0121094Y0199885D01*
X0120873Y0199898D01*
X0120652Y0199917D01*
X0120433Y0199942D01*
X0120213Y0199972D01*
X0119995Y0200007D01*
X0119777Y0200047D01*
X0119561Y0200093D01*
X0119346Y0200144D01*
X0119132Y0200201D01*
X0118919Y0200262D01*
X0118708Y0200329D01*
X0118499Y0200401D01*
X0118292Y0200478D01*
X0118086Y0200560D01*
X0117883Y0200647D01*
X0117682Y0200739D01*
X0117483Y0200836D01*
X0117287Y0200938D01*
X0117093Y0201045D01*
X0116902Y0201156D01*
X0116714Y0201272D01*
X0116528Y0201393D01*
X0116346Y0201518D01*
X0116166Y0201648D01*
X0115990Y0201782D01*
X0115818Y0201920D01*
X0115648Y0202063D01*
X0115483Y0202209D01*
X0115320Y0202360D01*
X0115162Y0202514D01*
X0115008Y0202672D01*
X0114857Y0202835D01*
X0114711Y0203000D01*
X0114568Y0203170D01*
X0114430Y0203342D01*
X0114296Y0203518D01*
X0114166Y0203698D01*
X0114041Y0203880D01*
X0113920Y0204066D01*
X0113804Y0204254D01*
X0113693Y0204445D01*
X0113586Y0204639D01*
X0113484Y0204835D01*
X0113387Y0205034D01*
X0113295Y0205235D01*
X0113208Y0205438D01*
X0113126Y0205644D01*
X0113049Y0205851D01*
X0112977Y0206060D01*
X0112910Y0206271D01*
X0112849Y0206484D01*
X0112792Y0206698D01*
X0112741Y0206913D01*
X0112695Y0207129D01*
X0112655Y0207347D01*
X0112620Y0207565D01*
X0112590Y0207785D01*
X0112565Y0208004D01*
X0112546Y0208225D01*
X0112533Y0208446D01*
X0112525Y0208667D01*
X0112522Y0208888D01*
X0092522Y0208888D02*
X0092525Y0209109D01*
X0092533Y0209330D01*
X0092546Y0209551D01*
X0092565Y0209772D01*
X0092590Y0209991D01*
X0092620Y0210211D01*
X0092655Y0210429D01*
X0092695Y0210647D01*
X0092741Y0210863D01*
X0092792Y0211078D01*
X0092849Y0211292D01*
X0092910Y0211505D01*
X0092977Y0211716D01*
X0093049Y0211925D01*
X0093126Y0212132D01*
X0093208Y0212338D01*
X0093295Y0212541D01*
X0093387Y0212742D01*
X0093484Y0212941D01*
X0093586Y0213137D01*
X0093693Y0213331D01*
X0093804Y0213522D01*
X0093920Y0213710D01*
X0094041Y0213896D01*
X0094166Y0214078D01*
X0094296Y0214258D01*
X0094430Y0214434D01*
X0094568Y0214606D01*
X0094711Y0214776D01*
X0094857Y0214941D01*
X0095008Y0215104D01*
X0095162Y0215262D01*
X0095320Y0215416D01*
X0095483Y0215567D01*
X0095648Y0215713D01*
X0095818Y0215856D01*
X0095990Y0215994D01*
X0096166Y0216128D01*
X0096346Y0216258D01*
X0096528Y0216383D01*
X0096714Y0216504D01*
X0096902Y0216620D01*
X0097093Y0216731D01*
X0097287Y0216838D01*
X0097483Y0216940D01*
X0097682Y0217037D01*
X0097883Y0217129D01*
X0098086Y0217216D01*
X0098292Y0217298D01*
X0098499Y0217375D01*
X0098708Y0217447D01*
X0098919Y0217514D01*
X0099132Y0217575D01*
X0099346Y0217632D01*
X0099561Y0217683D01*
X0099777Y0217729D01*
X0099995Y0217769D01*
X0100213Y0217804D01*
X0100433Y0217834D01*
X0100652Y0217859D01*
X0100873Y0217878D01*
X0101094Y0217891D01*
X0101315Y0217899D01*
X0101536Y0217902D01*
X0101757Y0217899D01*
X0101978Y0217891D01*
X0102199Y0217878D01*
X0102420Y0217859D01*
X0102639Y0217834D01*
X0102859Y0217804D01*
X0103077Y0217769D01*
X0103295Y0217729D01*
X0103511Y0217683D01*
X0103726Y0217632D01*
X0103940Y0217575D01*
X0104153Y0217514D01*
X0104364Y0217447D01*
X0104573Y0217375D01*
X0104780Y0217298D01*
X0104986Y0217216D01*
X0105189Y0217129D01*
X0105390Y0217037D01*
X0105589Y0216940D01*
X0105785Y0216838D01*
X0105979Y0216731D01*
X0106170Y0216620D01*
X0106358Y0216504D01*
X0106544Y0216383D01*
X0106726Y0216258D01*
X0106906Y0216128D01*
X0107082Y0215994D01*
X0107254Y0215856D01*
X0107424Y0215713D01*
X0107589Y0215567D01*
X0107752Y0215416D01*
X0107910Y0215262D01*
X0108064Y0215104D01*
X0108215Y0214941D01*
X0108361Y0214776D01*
X0108504Y0214606D01*
X0108642Y0214434D01*
X0108776Y0214258D01*
X0108906Y0214078D01*
X0109031Y0213896D01*
X0109152Y0213710D01*
X0109268Y0213522D01*
X0109379Y0213331D01*
X0109486Y0213137D01*
X0109588Y0212941D01*
X0109685Y0212742D01*
X0109777Y0212541D01*
X0109864Y0212338D01*
X0109946Y0212132D01*
X0110023Y0211925D01*
X0110095Y0211716D01*
X0110162Y0211505D01*
X0110223Y0211292D01*
X0110280Y0211078D01*
X0110331Y0210863D01*
X0110377Y0210647D01*
X0110417Y0210429D01*
X0110452Y0210211D01*
X0110482Y0209991D01*
X0110507Y0209772D01*
X0110526Y0209551D01*
X0110539Y0209330D01*
X0110547Y0209109D01*
X0110550Y0208888D01*
X0110547Y0208667D01*
X0110539Y0208446D01*
X0110526Y0208225D01*
X0110507Y0208004D01*
X0110482Y0207785D01*
X0110452Y0207565D01*
X0110417Y0207347D01*
X0110377Y0207129D01*
X0110331Y0206913D01*
X0110280Y0206698D01*
X0110223Y0206484D01*
X0110162Y0206271D01*
X0110095Y0206060D01*
X0110023Y0205851D01*
X0109946Y0205644D01*
X0109864Y0205438D01*
X0109777Y0205235D01*
X0109685Y0205034D01*
X0109588Y0204835D01*
X0109486Y0204639D01*
X0109379Y0204445D01*
X0109268Y0204254D01*
X0109152Y0204066D01*
X0109031Y0203880D01*
X0108906Y0203698D01*
X0108776Y0203518D01*
X0108642Y0203342D01*
X0108504Y0203170D01*
X0108361Y0203000D01*
X0108215Y0202835D01*
X0108064Y0202672D01*
X0107910Y0202514D01*
X0107752Y0202360D01*
X0107589Y0202209D01*
X0107424Y0202063D01*
X0107254Y0201920D01*
X0107082Y0201782D01*
X0106906Y0201648D01*
X0106726Y0201518D01*
X0106544Y0201393D01*
X0106358Y0201272D01*
X0106170Y0201156D01*
X0105979Y0201045D01*
X0105785Y0200938D01*
X0105589Y0200836D01*
X0105390Y0200739D01*
X0105189Y0200647D01*
X0104986Y0200560D01*
X0104780Y0200478D01*
X0104573Y0200401D01*
X0104364Y0200329D01*
X0104153Y0200262D01*
X0103940Y0200201D01*
X0103726Y0200144D01*
X0103511Y0200093D01*
X0103295Y0200047D01*
X0103077Y0200007D01*
X0102859Y0199972D01*
X0102639Y0199942D01*
X0102420Y0199917D01*
X0102199Y0199898D01*
X0101978Y0199885D01*
X0101757Y0199877D01*
X0101536Y0199874D01*
X0101315Y0199877D01*
X0101094Y0199885D01*
X0100873Y0199898D01*
X0100652Y0199917D01*
X0100433Y0199942D01*
X0100213Y0199972D01*
X0099995Y0200007D01*
X0099777Y0200047D01*
X0099561Y0200093D01*
X0099346Y0200144D01*
X0099132Y0200201D01*
X0098919Y0200262D01*
X0098708Y0200329D01*
X0098499Y0200401D01*
X0098292Y0200478D01*
X0098086Y0200560D01*
X0097883Y0200647D01*
X0097682Y0200739D01*
X0097483Y0200836D01*
X0097287Y0200938D01*
X0097093Y0201045D01*
X0096902Y0201156D01*
X0096714Y0201272D01*
X0096528Y0201393D01*
X0096346Y0201518D01*
X0096166Y0201648D01*
X0095990Y0201782D01*
X0095818Y0201920D01*
X0095648Y0202063D01*
X0095483Y0202209D01*
X0095320Y0202360D01*
X0095162Y0202514D01*
X0095008Y0202672D01*
X0094857Y0202835D01*
X0094711Y0203000D01*
X0094568Y0203170D01*
X0094430Y0203342D01*
X0094296Y0203518D01*
X0094166Y0203698D01*
X0094041Y0203880D01*
X0093920Y0204066D01*
X0093804Y0204254D01*
X0093693Y0204445D01*
X0093586Y0204639D01*
X0093484Y0204835D01*
X0093387Y0205034D01*
X0093295Y0205235D01*
X0093208Y0205438D01*
X0093126Y0205644D01*
X0093049Y0205851D01*
X0092977Y0206060D01*
X0092910Y0206271D01*
X0092849Y0206484D01*
X0092792Y0206698D01*
X0092741Y0206913D01*
X0092695Y0207129D01*
X0092655Y0207347D01*
X0092620Y0207565D01*
X0092590Y0207785D01*
X0092565Y0208004D01*
X0092546Y0208225D01*
X0092533Y0208446D01*
X0092525Y0208667D01*
X0092522Y0208888D01*
X0170339Y0176238D02*
X0170339Y0135238D01*
X0202339Y0135238D01*
X0202339Y0176238D01*
X0170339Y0176238D01*
X0176339Y0175238D02*
X0176339Y0136238D01*
X0196339Y0136238D01*
X0196339Y0175238D01*
X0176339Y0175238D01*
X0177325Y0165738D02*
X0177328Y0165959D01*
X0177336Y0166180D01*
X0177349Y0166401D01*
X0177368Y0166622D01*
X0177393Y0166841D01*
X0177423Y0167061D01*
X0177458Y0167279D01*
X0177498Y0167497D01*
X0177544Y0167713D01*
X0177595Y0167928D01*
X0177652Y0168142D01*
X0177713Y0168355D01*
X0177780Y0168566D01*
X0177852Y0168775D01*
X0177929Y0168982D01*
X0178011Y0169188D01*
X0178098Y0169391D01*
X0178190Y0169592D01*
X0178287Y0169791D01*
X0178389Y0169987D01*
X0178496Y0170181D01*
X0178607Y0170372D01*
X0178723Y0170560D01*
X0178844Y0170746D01*
X0178969Y0170928D01*
X0179099Y0171108D01*
X0179233Y0171284D01*
X0179371Y0171456D01*
X0179514Y0171626D01*
X0179660Y0171791D01*
X0179811Y0171954D01*
X0179965Y0172112D01*
X0180123Y0172266D01*
X0180286Y0172417D01*
X0180451Y0172563D01*
X0180621Y0172706D01*
X0180793Y0172844D01*
X0180969Y0172978D01*
X0181149Y0173108D01*
X0181331Y0173233D01*
X0181517Y0173354D01*
X0181705Y0173470D01*
X0181896Y0173581D01*
X0182090Y0173688D01*
X0182286Y0173790D01*
X0182485Y0173887D01*
X0182686Y0173979D01*
X0182889Y0174066D01*
X0183095Y0174148D01*
X0183302Y0174225D01*
X0183511Y0174297D01*
X0183722Y0174364D01*
X0183935Y0174425D01*
X0184149Y0174482D01*
X0184364Y0174533D01*
X0184580Y0174579D01*
X0184798Y0174619D01*
X0185016Y0174654D01*
X0185236Y0174684D01*
X0185455Y0174709D01*
X0185676Y0174728D01*
X0185897Y0174741D01*
X0186118Y0174749D01*
X0186339Y0174752D01*
X0186560Y0174749D01*
X0186781Y0174741D01*
X0187002Y0174728D01*
X0187223Y0174709D01*
X0187442Y0174684D01*
X0187662Y0174654D01*
X0187880Y0174619D01*
X0188098Y0174579D01*
X0188314Y0174533D01*
X0188529Y0174482D01*
X0188743Y0174425D01*
X0188956Y0174364D01*
X0189167Y0174297D01*
X0189376Y0174225D01*
X0189583Y0174148D01*
X0189789Y0174066D01*
X0189992Y0173979D01*
X0190193Y0173887D01*
X0190392Y0173790D01*
X0190588Y0173688D01*
X0190782Y0173581D01*
X0190973Y0173470D01*
X0191161Y0173354D01*
X0191347Y0173233D01*
X0191529Y0173108D01*
X0191709Y0172978D01*
X0191885Y0172844D01*
X0192057Y0172706D01*
X0192227Y0172563D01*
X0192392Y0172417D01*
X0192555Y0172266D01*
X0192713Y0172112D01*
X0192867Y0171954D01*
X0193018Y0171791D01*
X0193164Y0171626D01*
X0193307Y0171456D01*
X0193445Y0171284D01*
X0193579Y0171108D01*
X0193709Y0170928D01*
X0193834Y0170746D01*
X0193955Y0170560D01*
X0194071Y0170372D01*
X0194182Y0170181D01*
X0194289Y0169987D01*
X0194391Y0169791D01*
X0194488Y0169592D01*
X0194580Y0169391D01*
X0194667Y0169188D01*
X0194749Y0168982D01*
X0194826Y0168775D01*
X0194898Y0168566D01*
X0194965Y0168355D01*
X0195026Y0168142D01*
X0195083Y0167928D01*
X0195134Y0167713D01*
X0195180Y0167497D01*
X0195220Y0167279D01*
X0195255Y0167061D01*
X0195285Y0166841D01*
X0195310Y0166622D01*
X0195329Y0166401D01*
X0195342Y0166180D01*
X0195350Y0165959D01*
X0195353Y0165738D01*
X0195350Y0165517D01*
X0195342Y0165296D01*
X0195329Y0165075D01*
X0195310Y0164854D01*
X0195285Y0164635D01*
X0195255Y0164415D01*
X0195220Y0164197D01*
X0195180Y0163979D01*
X0195134Y0163763D01*
X0195083Y0163548D01*
X0195026Y0163334D01*
X0194965Y0163121D01*
X0194898Y0162910D01*
X0194826Y0162701D01*
X0194749Y0162494D01*
X0194667Y0162288D01*
X0194580Y0162085D01*
X0194488Y0161884D01*
X0194391Y0161685D01*
X0194289Y0161489D01*
X0194182Y0161295D01*
X0194071Y0161104D01*
X0193955Y0160916D01*
X0193834Y0160730D01*
X0193709Y0160548D01*
X0193579Y0160368D01*
X0193445Y0160192D01*
X0193307Y0160020D01*
X0193164Y0159850D01*
X0193018Y0159685D01*
X0192867Y0159522D01*
X0192713Y0159364D01*
X0192555Y0159210D01*
X0192392Y0159059D01*
X0192227Y0158913D01*
X0192057Y0158770D01*
X0191885Y0158632D01*
X0191709Y0158498D01*
X0191529Y0158368D01*
X0191347Y0158243D01*
X0191161Y0158122D01*
X0190973Y0158006D01*
X0190782Y0157895D01*
X0190588Y0157788D01*
X0190392Y0157686D01*
X0190193Y0157589D01*
X0189992Y0157497D01*
X0189789Y0157410D01*
X0189583Y0157328D01*
X0189376Y0157251D01*
X0189167Y0157179D01*
X0188956Y0157112D01*
X0188743Y0157051D01*
X0188529Y0156994D01*
X0188314Y0156943D01*
X0188098Y0156897D01*
X0187880Y0156857D01*
X0187662Y0156822D01*
X0187442Y0156792D01*
X0187223Y0156767D01*
X0187002Y0156748D01*
X0186781Y0156735D01*
X0186560Y0156727D01*
X0186339Y0156724D01*
X0186118Y0156727D01*
X0185897Y0156735D01*
X0185676Y0156748D01*
X0185455Y0156767D01*
X0185236Y0156792D01*
X0185016Y0156822D01*
X0184798Y0156857D01*
X0184580Y0156897D01*
X0184364Y0156943D01*
X0184149Y0156994D01*
X0183935Y0157051D01*
X0183722Y0157112D01*
X0183511Y0157179D01*
X0183302Y0157251D01*
X0183095Y0157328D01*
X0182889Y0157410D01*
X0182686Y0157497D01*
X0182485Y0157589D01*
X0182286Y0157686D01*
X0182090Y0157788D01*
X0181896Y0157895D01*
X0181705Y0158006D01*
X0181517Y0158122D01*
X0181331Y0158243D01*
X0181149Y0158368D01*
X0180969Y0158498D01*
X0180793Y0158632D01*
X0180621Y0158770D01*
X0180451Y0158913D01*
X0180286Y0159059D01*
X0180123Y0159210D01*
X0179965Y0159364D01*
X0179811Y0159522D01*
X0179660Y0159685D01*
X0179514Y0159850D01*
X0179371Y0160020D01*
X0179233Y0160192D01*
X0179099Y0160368D01*
X0178969Y0160548D01*
X0178844Y0160730D01*
X0178723Y0160916D01*
X0178607Y0161104D01*
X0178496Y0161295D01*
X0178389Y0161489D01*
X0178287Y0161685D01*
X0178190Y0161884D01*
X0178098Y0162085D01*
X0178011Y0162288D01*
X0177929Y0162494D01*
X0177852Y0162701D01*
X0177780Y0162910D01*
X0177713Y0163121D01*
X0177652Y0163334D01*
X0177595Y0163548D01*
X0177544Y0163763D01*
X0177498Y0163979D01*
X0177458Y0164197D01*
X0177423Y0164415D01*
X0177393Y0164635D01*
X0177368Y0164854D01*
X0177349Y0165075D01*
X0177336Y0165296D01*
X0177328Y0165517D01*
X0177325Y0165738D01*
X0177325Y0145738D02*
X0177328Y0145959D01*
X0177336Y0146180D01*
X0177349Y0146401D01*
X0177368Y0146622D01*
X0177393Y0146841D01*
X0177423Y0147061D01*
X0177458Y0147279D01*
X0177498Y0147497D01*
X0177544Y0147713D01*
X0177595Y0147928D01*
X0177652Y0148142D01*
X0177713Y0148355D01*
X0177780Y0148566D01*
X0177852Y0148775D01*
X0177929Y0148982D01*
X0178011Y0149188D01*
X0178098Y0149391D01*
X0178190Y0149592D01*
X0178287Y0149791D01*
X0178389Y0149987D01*
X0178496Y0150181D01*
X0178607Y0150372D01*
X0178723Y0150560D01*
X0178844Y0150746D01*
X0178969Y0150928D01*
X0179099Y0151108D01*
X0179233Y0151284D01*
X0179371Y0151456D01*
X0179514Y0151626D01*
X0179660Y0151791D01*
X0179811Y0151954D01*
X0179965Y0152112D01*
X0180123Y0152266D01*
X0180286Y0152417D01*
X0180451Y0152563D01*
X0180621Y0152706D01*
X0180793Y0152844D01*
X0180969Y0152978D01*
X0181149Y0153108D01*
X0181331Y0153233D01*
X0181517Y0153354D01*
X0181705Y0153470D01*
X0181896Y0153581D01*
X0182090Y0153688D01*
X0182286Y0153790D01*
X0182485Y0153887D01*
X0182686Y0153979D01*
X0182889Y0154066D01*
X0183095Y0154148D01*
X0183302Y0154225D01*
X0183511Y0154297D01*
X0183722Y0154364D01*
X0183935Y0154425D01*
X0184149Y0154482D01*
X0184364Y0154533D01*
X0184580Y0154579D01*
X0184798Y0154619D01*
X0185016Y0154654D01*
X0185236Y0154684D01*
X0185455Y0154709D01*
X0185676Y0154728D01*
X0185897Y0154741D01*
X0186118Y0154749D01*
X0186339Y0154752D01*
X0186560Y0154749D01*
X0186781Y0154741D01*
X0187002Y0154728D01*
X0187223Y0154709D01*
X0187442Y0154684D01*
X0187662Y0154654D01*
X0187880Y0154619D01*
X0188098Y0154579D01*
X0188314Y0154533D01*
X0188529Y0154482D01*
X0188743Y0154425D01*
X0188956Y0154364D01*
X0189167Y0154297D01*
X0189376Y0154225D01*
X0189583Y0154148D01*
X0189789Y0154066D01*
X0189992Y0153979D01*
X0190193Y0153887D01*
X0190392Y0153790D01*
X0190588Y0153688D01*
X0190782Y0153581D01*
X0190973Y0153470D01*
X0191161Y0153354D01*
X0191347Y0153233D01*
X0191529Y0153108D01*
X0191709Y0152978D01*
X0191885Y0152844D01*
X0192057Y0152706D01*
X0192227Y0152563D01*
X0192392Y0152417D01*
X0192555Y0152266D01*
X0192713Y0152112D01*
X0192867Y0151954D01*
X0193018Y0151791D01*
X0193164Y0151626D01*
X0193307Y0151456D01*
X0193445Y0151284D01*
X0193579Y0151108D01*
X0193709Y0150928D01*
X0193834Y0150746D01*
X0193955Y0150560D01*
X0194071Y0150372D01*
X0194182Y0150181D01*
X0194289Y0149987D01*
X0194391Y0149791D01*
X0194488Y0149592D01*
X0194580Y0149391D01*
X0194667Y0149188D01*
X0194749Y0148982D01*
X0194826Y0148775D01*
X0194898Y0148566D01*
X0194965Y0148355D01*
X0195026Y0148142D01*
X0195083Y0147928D01*
X0195134Y0147713D01*
X0195180Y0147497D01*
X0195220Y0147279D01*
X0195255Y0147061D01*
X0195285Y0146841D01*
X0195310Y0146622D01*
X0195329Y0146401D01*
X0195342Y0146180D01*
X0195350Y0145959D01*
X0195353Y0145738D01*
X0195350Y0145517D01*
X0195342Y0145296D01*
X0195329Y0145075D01*
X0195310Y0144854D01*
X0195285Y0144635D01*
X0195255Y0144415D01*
X0195220Y0144197D01*
X0195180Y0143979D01*
X0195134Y0143763D01*
X0195083Y0143548D01*
X0195026Y0143334D01*
X0194965Y0143121D01*
X0194898Y0142910D01*
X0194826Y0142701D01*
X0194749Y0142494D01*
X0194667Y0142288D01*
X0194580Y0142085D01*
X0194488Y0141884D01*
X0194391Y0141685D01*
X0194289Y0141489D01*
X0194182Y0141295D01*
X0194071Y0141104D01*
X0193955Y0140916D01*
X0193834Y0140730D01*
X0193709Y0140548D01*
X0193579Y0140368D01*
X0193445Y0140192D01*
X0193307Y0140020D01*
X0193164Y0139850D01*
X0193018Y0139685D01*
X0192867Y0139522D01*
X0192713Y0139364D01*
X0192555Y0139210D01*
X0192392Y0139059D01*
X0192227Y0138913D01*
X0192057Y0138770D01*
X0191885Y0138632D01*
X0191709Y0138498D01*
X0191529Y0138368D01*
X0191347Y0138243D01*
X0191161Y0138122D01*
X0190973Y0138006D01*
X0190782Y0137895D01*
X0190588Y0137788D01*
X0190392Y0137686D01*
X0190193Y0137589D01*
X0189992Y0137497D01*
X0189789Y0137410D01*
X0189583Y0137328D01*
X0189376Y0137251D01*
X0189167Y0137179D01*
X0188956Y0137112D01*
X0188743Y0137051D01*
X0188529Y0136994D01*
X0188314Y0136943D01*
X0188098Y0136897D01*
X0187880Y0136857D01*
X0187662Y0136822D01*
X0187442Y0136792D01*
X0187223Y0136767D01*
X0187002Y0136748D01*
X0186781Y0136735D01*
X0186560Y0136727D01*
X0186339Y0136724D01*
X0186118Y0136727D01*
X0185897Y0136735D01*
X0185676Y0136748D01*
X0185455Y0136767D01*
X0185236Y0136792D01*
X0185016Y0136822D01*
X0184798Y0136857D01*
X0184580Y0136897D01*
X0184364Y0136943D01*
X0184149Y0136994D01*
X0183935Y0137051D01*
X0183722Y0137112D01*
X0183511Y0137179D01*
X0183302Y0137251D01*
X0183095Y0137328D01*
X0182889Y0137410D01*
X0182686Y0137497D01*
X0182485Y0137589D01*
X0182286Y0137686D01*
X0182090Y0137788D01*
X0181896Y0137895D01*
X0181705Y0138006D01*
X0181517Y0138122D01*
X0181331Y0138243D01*
X0181149Y0138368D01*
X0180969Y0138498D01*
X0180793Y0138632D01*
X0180621Y0138770D01*
X0180451Y0138913D01*
X0180286Y0139059D01*
X0180123Y0139210D01*
X0179965Y0139364D01*
X0179811Y0139522D01*
X0179660Y0139685D01*
X0179514Y0139850D01*
X0179371Y0140020D01*
X0179233Y0140192D01*
X0179099Y0140368D01*
X0178969Y0140548D01*
X0178844Y0140730D01*
X0178723Y0140916D01*
X0178607Y0141104D01*
X0178496Y0141295D01*
X0178389Y0141489D01*
X0178287Y0141685D01*
X0178190Y0141884D01*
X0178098Y0142085D01*
X0178011Y0142288D01*
X0177929Y0142494D01*
X0177852Y0142701D01*
X0177780Y0142910D01*
X0177713Y0143121D01*
X0177652Y0143334D01*
X0177595Y0143548D01*
X0177544Y0143763D01*
X0177498Y0143979D01*
X0177458Y0144197D01*
X0177423Y0144415D01*
X0177393Y0144635D01*
X0177368Y0144854D01*
X0177349Y0145075D01*
X0177336Y0145296D01*
X0177328Y0145517D01*
X0177325Y0145738D01*
D19*
X0160847Y0155837D02*
X0156845Y0155837D01*
X0152908Y0155837D02*
X0148905Y0155837D01*
X0144968Y0155837D02*
X0140965Y0155837D01*
X0140965Y0161102D01*
X0140965Y0165039D02*
X0140965Y0170305D01*
X0140965Y0174242D02*
X0140965Y0179508D01*
X0140965Y0183445D02*
X0140965Y0188711D01*
X0144968Y0188711D01*
X0148905Y0188711D02*
X0152908Y0188711D01*
X0156845Y0188711D02*
X0160847Y0188711D01*
X0160847Y0183445D01*
X0160847Y0179508D02*
X0160847Y0174242D01*
X0160847Y0170305D02*
X0160847Y0165039D01*
X0160847Y0161102D02*
X0160847Y0155837D01*
D20*
X0150906Y0155837D02*
X0150906Y0167549D01*
X0141064Y0167549D01*
X0150906Y0181329D01*
X0160749Y0167549D01*
X0150906Y0167549D01*
X0150906Y0155837D02*
X0150906Y0155738D01*
X0150906Y0137530D01*
X0150906Y0181329D02*
X0141064Y0181329D01*
X0150906Y0181329D02*
X0160749Y0181329D01*
X0150906Y0181329D02*
X0150906Y0205049D01*
M02*
