%
M48
M72
T01C0.0354
T02C0.0394
T03C0.0400
T04C0.0551
T05C0.0591
T06C0.0866
T07C0.1180
%
T01
X9260Y11243
X11154Y12499
X12260Y11243
X11154Y15499
T02
X9185Y14999
X9185Y13999
X9185Y12999
X16665Y10625
X17665Y10625
T03
X10973Y5338
X9973Y5338
T04
X4658Y5338
X6626Y5338
X18634Y14590
X18634Y16558
X12138Y20889
X10169Y20889
T05
X15091Y21086
X15091Y13212
T06
X14665Y8625
X18665Y8625
T07
X7492Y20889
X6311Y19038
X5130Y20889
M30
