G75*
%MOIN*%
%OFA0B0*%
%FSLAX25Y25*%
%IPPOS*%
%LPD*%
%AMOC8*
5,1,8,0,0,1.08239X$1,22.5*
%
%ADD10C,0.00000*%
%ADD11C,0.01500*%
D10*
X0020985Y0033691D02*
X0194213Y0033691D01*
X0194498Y0033694D01*
X0194784Y0033705D01*
X0195069Y0033722D01*
X0195353Y0033746D01*
X0195637Y0033777D01*
X0195920Y0033815D01*
X0196201Y0033860D01*
X0196482Y0033911D01*
X0196762Y0033969D01*
X0197040Y0034034D01*
X0197316Y0034106D01*
X0197590Y0034184D01*
X0197863Y0034269D01*
X0198133Y0034361D01*
X0198401Y0034459D01*
X0198667Y0034563D01*
X0198930Y0034674D01*
X0199190Y0034791D01*
X0199448Y0034914D01*
X0199702Y0035044D01*
X0199953Y0035180D01*
X0200201Y0035321D01*
X0200445Y0035469D01*
X0200686Y0035622D01*
X0200922Y0035782D01*
X0201155Y0035947D01*
X0201384Y0036117D01*
X0201609Y0036293D01*
X0201829Y0036475D01*
X0202045Y0036661D01*
X0202256Y0036853D01*
X0202463Y0037050D01*
X0202665Y0037252D01*
X0202862Y0037459D01*
X0203054Y0037670D01*
X0203240Y0037886D01*
X0203422Y0038106D01*
X0203598Y0038331D01*
X0203768Y0038560D01*
X0203933Y0038793D01*
X0204093Y0039029D01*
X0204246Y0039270D01*
X0204394Y0039514D01*
X0204535Y0039762D01*
X0204671Y0040013D01*
X0204801Y0040267D01*
X0204924Y0040525D01*
X0205041Y0040785D01*
X0205152Y0041048D01*
X0205256Y0041314D01*
X0205354Y0041582D01*
X0205446Y0041852D01*
X0205531Y0042125D01*
X0205609Y0042399D01*
X0205681Y0042675D01*
X0205746Y0042953D01*
X0205804Y0043233D01*
X0205855Y0043514D01*
X0205900Y0043795D01*
X0205938Y0044078D01*
X0205969Y0044362D01*
X0205993Y0044646D01*
X0206010Y0044931D01*
X0206021Y0045217D01*
X0206024Y0045502D01*
X0206024Y0218730D01*
X0206021Y0219015D01*
X0206010Y0219301D01*
X0205993Y0219586D01*
X0205969Y0219870D01*
X0205938Y0220154D01*
X0205900Y0220437D01*
X0205855Y0220718D01*
X0205804Y0220999D01*
X0205746Y0221279D01*
X0205681Y0221557D01*
X0205609Y0221833D01*
X0205531Y0222107D01*
X0205446Y0222380D01*
X0205354Y0222650D01*
X0205256Y0222918D01*
X0205152Y0223184D01*
X0205041Y0223447D01*
X0204924Y0223707D01*
X0204801Y0223965D01*
X0204671Y0224219D01*
X0204535Y0224470D01*
X0204394Y0224718D01*
X0204246Y0224962D01*
X0204093Y0225203D01*
X0203933Y0225439D01*
X0203768Y0225672D01*
X0203598Y0225901D01*
X0203422Y0226126D01*
X0203240Y0226346D01*
X0203054Y0226562D01*
X0202862Y0226773D01*
X0202665Y0226980D01*
X0202463Y0227182D01*
X0202256Y0227379D01*
X0202045Y0227571D01*
X0201829Y0227757D01*
X0201609Y0227939D01*
X0201384Y0228115D01*
X0201155Y0228285D01*
X0200922Y0228450D01*
X0200686Y0228610D01*
X0200445Y0228763D01*
X0200201Y0228911D01*
X0199953Y0229052D01*
X0199702Y0229188D01*
X0199448Y0229318D01*
X0199190Y0229441D01*
X0198930Y0229558D01*
X0198667Y0229669D01*
X0198401Y0229773D01*
X0198133Y0229871D01*
X0197863Y0229963D01*
X0197590Y0230048D01*
X0197316Y0230126D01*
X0197040Y0230198D01*
X0196762Y0230263D01*
X0196482Y0230321D01*
X0196201Y0230372D01*
X0195920Y0230417D01*
X0195637Y0230455D01*
X0195353Y0230486D01*
X0195069Y0230510D01*
X0194784Y0230527D01*
X0194498Y0230538D01*
X0194213Y0230541D01*
X0020985Y0230541D01*
X0020700Y0230538D01*
X0020414Y0230527D01*
X0020129Y0230510D01*
X0019845Y0230486D01*
X0019561Y0230455D01*
X0019278Y0230417D01*
X0018997Y0230372D01*
X0018716Y0230321D01*
X0018436Y0230263D01*
X0018158Y0230198D01*
X0017882Y0230126D01*
X0017608Y0230048D01*
X0017335Y0229963D01*
X0017065Y0229871D01*
X0016797Y0229773D01*
X0016531Y0229669D01*
X0016268Y0229558D01*
X0016008Y0229441D01*
X0015750Y0229318D01*
X0015496Y0229188D01*
X0015245Y0229052D01*
X0014997Y0228911D01*
X0014753Y0228763D01*
X0014512Y0228610D01*
X0014276Y0228450D01*
X0014043Y0228285D01*
X0013814Y0228115D01*
X0013589Y0227939D01*
X0013369Y0227757D01*
X0013153Y0227571D01*
X0012942Y0227379D01*
X0012735Y0227182D01*
X0012533Y0226980D01*
X0012336Y0226773D01*
X0012144Y0226562D01*
X0011958Y0226346D01*
X0011776Y0226126D01*
X0011600Y0225901D01*
X0011430Y0225672D01*
X0011265Y0225439D01*
X0011105Y0225203D01*
X0010952Y0224962D01*
X0010804Y0224718D01*
X0010663Y0224470D01*
X0010527Y0224219D01*
X0010397Y0223965D01*
X0010274Y0223707D01*
X0010157Y0223447D01*
X0010046Y0223184D01*
X0009942Y0222918D01*
X0009844Y0222650D01*
X0009752Y0222380D01*
X0009667Y0222107D01*
X0009589Y0221833D01*
X0009517Y0221557D01*
X0009452Y0221279D01*
X0009394Y0220999D01*
X0009343Y0220718D01*
X0009298Y0220437D01*
X0009260Y0220154D01*
X0009229Y0219870D01*
X0009205Y0219586D01*
X0009188Y0219301D01*
X0009177Y0219015D01*
X0009174Y0218730D01*
X0009174Y0045502D01*
X0009177Y0045217D01*
X0009188Y0044931D01*
X0009205Y0044646D01*
X0009229Y0044362D01*
X0009260Y0044078D01*
X0009298Y0043795D01*
X0009343Y0043514D01*
X0009394Y0043233D01*
X0009452Y0042953D01*
X0009517Y0042675D01*
X0009589Y0042399D01*
X0009667Y0042125D01*
X0009752Y0041852D01*
X0009844Y0041582D01*
X0009942Y0041314D01*
X0010046Y0041048D01*
X0010157Y0040785D01*
X0010274Y0040525D01*
X0010397Y0040267D01*
X0010527Y0040013D01*
X0010663Y0039762D01*
X0010804Y0039514D01*
X0010952Y0039270D01*
X0011105Y0039029D01*
X0011265Y0038793D01*
X0011430Y0038560D01*
X0011600Y0038331D01*
X0011776Y0038106D01*
X0011958Y0037886D01*
X0012144Y0037670D01*
X0012336Y0037459D01*
X0012533Y0037252D01*
X0012735Y0037050D01*
X0012942Y0036853D01*
X0013153Y0036661D01*
X0013369Y0036475D01*
X0013589Y0036293D01*
X0013814Y0036117D01*
X0014043Y0035947D01*
X0014276Y0035782D01*
X0014512Y0035622D01*
X0014753Y0035469D01*
X0014997Y0035321D01*
X0015245Y0035180D01*
X0015496Y0035044D01*
X0015750Y0034914D01*
X0016008Y0034791D01*
X0016268Y0034674D01*
X0016531Y0034563D01*
X0016797Y0034459D01*
X0017065Y0034361D01*
X0017335Y0034269D01*
X0017608Y0034184D01*
X0017882Y0034106D01*
X0018158Y0034034D01*
X0018436Y0033969D01*
X0018716Y0033911D01*
X0018997Y0033860D01*
X0019278Y0033815D01*
X0019561Y0033777D01*
X0019845Y0033746D01*
X0020129Y0033722D01*
X0020414Y0033705D01*
X0020700Y0033694D01*
X0020985Y0033691D01*
D11*
X0019609Y0044724D02*
X0028116Y0044724D01*
X0025281Y0047560D01*
X0028116Y0050396D01*
X0019609Y0050396D01*
X0019609Y0053932D02*
X0025281Y0059604D01*
X0026698Y0059604D01*
X0028116Y0058186D01*
X0028116Y0055350D01*
X0026698Y0053932D01*
X0019609Y0053932D02*
X0019609Y0059604D01*
X0019609Y0063140D02*
X0019609Y0067394D01*
X0021027Y0068812D01*
X0026698Y0068812D01*
X0028116Y0067394D01*
X0028116Y0063140D01*
X0019609Y0063140D01*
X0019609Y0072348D02*
X0025281Y0078020D01*
X0026698Y0078020D01*
X0028116Y0076602D01*
X0028116Y0073766D01*
X0026698Y0072348D01*
X0019609Y0072348D02*
X0019609Y0078020D01*
X0016773Y0090764D02*
X0019609Y0093600D01*
X0019609Y0092182D01*
X0021027Y0092182D01*
X0021027Y0093600D01*
X0019609Y0093600D01*
X0019609Y0106110D02*
X0019609Y0108946D01*
X0019609Y0107528D02*
X0028116Y0107528D01*
X0028116Y0106110D02*
X0028116Y0108946D01*
X0028116Y0112249D02*
X0028116Y0115085D01*
X0028116Y0113667D02*
X0019609Y0113667D01*
X0019609Y0112249D02*
X0019609Y0115085D01*
X0021027Y0118387D02*
X0019609Y0119805D01*
X0019609Y0122641D01*
X0021027Y0124059D01*
X0022445Y0124059D01*
X0023863Y0122641D01*
X0023863Y0119805D01*
X0025281Y0118387D01*
X0026698Y0118387D01*
X0028116Y0119805D01*
X0028116Y0122641D01*
X0026698Y0124059D01*
X0023863Y0127595D02*
X0021027Y0127595D01*
X0019609Y0129013D01*
X0019609Y0133267D01*
X0025281Y0133267D02*
X0025281Y0129013D01*
X0023863Y0127595D01*
M02*
